<svg xmlns="http://www.w3.org/2000/svg" width="1200" height="630" viewBox="0 0 1200 630">
<defs>
<linearGradient id="bg" x1="0" x2="1" y1="0" y2="1">
<stop offset="0" stop-color="#166534"/>
<stop offset=".55" stop-color="#052e16"/>
<stop offset="1" stop-color="#022c22"/>
</linearGradient>
<radialGradient id="avo" cx="35%" cy="25%">
<stop offset="0" stop-color="#dcfce7"/>
<stop offset=".5" stop-color="#84cc16"/>
<stop offset="1" stop-color="#14532d"/>
</radialGradient>
<filter id="shadow"><feDropShadow dx="0" dy="12" stdDeviation="10" flood-opacity=".35"/></filter>
</defs>
<rect width="1200" height="630" fill="url(#bg)"/>
<circle cx="1030" cy="120" r="180" fill="#84cc16" opacity=".10"/>
<circle cx="180" cy="540" r="220" fill="#fde047" opacity=".08"/>
<path d="M130 385 C250 220,420 220,520 350 C620 480,850 480,1010 300" fill="none" stroke="#22c55e" stroke-width="54" stroke-linecap="round" filter="url(#shadow)"/>
<path d="M130 385 C250 220,420 220,520 350 C620 480,850 480,1010 300" fill="none" stroke="#bbf7d0" stroke-width="14" stroke-linecap="round" opacity=".55"/>
<ellipse cx="1010" cy="300" rx="64" ry="52" fill="#22c55e" filter="url(#shadow)"/>
<circle cx="1030" cy="282" r="13" fill="#fff"/>
<circle cx="1033" cy="282" r="6" fill="#0f172a"/>
<path d="M1055 307 C1095 298,1104 306,1125 295 M1124 295 L1136 285 M1124 295 L1138 302" stroke="#ef4444" stroke-width="8" fill="none" stroke-linecap="round"/>
<ellipse cx="220" cy="170" rx="60" ry="78" fill="#0f3d1c" filter="url(#shadow)"/>
<ellipse cx="220" cy="168" rx="47" ry="63" fill="url(#avo)"/>
<ellipse cx="220" cy="190" rx="21" ry="25" fill="#7c2d12"/>
<text x="95" y="135" fill="#fef9c3" font-family="Arial, sans-serif" font-size="74" font-weight="900">Cobrinha do Abacate</text>
<text x="95" y="210" fill="#ffffff" font-family="Arial, sans-serif" font-size="58" font-weight="900">Ultimate</text>
<text x="95" y="570" fill="#dcfce7" font-family="Arial, sans-serif" font-size="34" font-weight="700">Skins • Boss Rush • Modo Infinito • Desafios Diários</text>
</svg>